<?xml version="1.0" encoding="utf-8"?>
<!-- Generator: Adobe Illustrator 21.0.2, SVG Export Plug-In . SVG Version: 6.00 Build 0)  -->
<svg version="1.1" id="Layer_1" xmlns="http://www.w3.org/2000/svg" xmlns:xlink="http://www.w3.org/1999/xlink" x="0px" y="0px"
	 viewBox="0 0 262.3 333.4" style="enable-background:new 0 0 262.3 333.4;" xml:space="preserve">
<style type="text/css">
	.st0{fill:url(#SVGID_1_);}
	.st1{fill:none;stroke:#F1F2F2;stroke-width:6;stroke-linecap:round;stroke-miterlimit:10;}
	.st2{fill:#58595B;}
</style>
<g>
	<g>
		<linearGradient id="SVGID_1_" gradientUnits="userSpaceOnUse" x1="5.123" y1="126.0044" x2="257.1328" y2="126.0044">
			<stop  offset="0" style="stop-color:#008DFF"/>
			<stop  offset="1.546502e-02" style="stop-color:#008DFE"/>
			<stop  offset="1" style="stop-color:#00A1DB"/>
		</linearGradient>
		<path class="st0" d="M257.1,126c0,69.6-56.4,126-126,126c-69.6,0-126-56.4-126-126c0-69.6,56.4-126,126-126
			C200.7,0,257.1,56.4,257.1,126"/>
		<g>
			<path class="st1" d="M106,164.9c0,0-1-0.1-2.8-0.5c-10.6-2.4-50.7-14-46.4-54.3l-29.3,1.5l5.6-10.6l16.7-8.2l10.6,2.1l10.1-9.8
				L85.2,82l13.3,5l-26,20.3c0,0,1.9,18.1,17.9,22.1"/>
			<path class="st1" d="M194.1,124.5c0,0-30-0.2-65.5,39.8c-3.6,4.1-7.3,8.6-11,13.6c0,0-18.3,18.1-30.8,12c0,0,27.6-6.6,19.1-58.4
				l41.2-51.5h49.1l29.5,45.3l-26.3,39.7h-70.8"/>
		</g>
	</g>
	<g>
		<g>
			<path class="st2" d="M71.3,326.6h0.1l3.4-8.5h3.7v0.6l-6.4,14.6h-1.6l-6.4-14.6v-0.6h3.7L71.3,326.6z"/>
			<path class="st2" d="M93.2,321.5c-2.2,0-3.3,0-5.5,0v2.1h5.1c0,1.1,0,2.3,0,3.4h-5.1c0,0.9,0,1.7,0,2.6c2.2,0,3.5,0,5.7,0
				c0,1.1,0,2.3,0,3.4c-3.5,0-6.1,0-9.5,0c0-5,0-10,0-15c3.5,0,5.8,0,9.4,0C93.2,319.2,93.2,320.4,93.2,321.5z"/>
			<path class="st2" d="M103.7,325.7v7.4c-1.3,0-2.7,0-4,0v-15h1.4l7.6,7.4v-7.3c1.3,0,2.6,0,3.9,0v15h-1.4L103.7,325.7z"/>
			<path class="st2" d="M118,321.5c0-1.2,0-2.3,0-3.4h11.1c0,1.1,0,2.3,0,3.4h-3.7v11.6c-1.3,0-2.5,0-3.8,0v-11.6H118z"/>
			<path class="st2" d="M142.7,328v-9.9c1.2,0,2.5,0,3.7,0v10c0,3.3-2.9,5.2-6,5.2c-3.1,0-6-1.9-6-5.2v-10c1.2,0,2.5,0,3.7,0v9.9
				c0,1.2,1.2,1.8,2.3,1.8S142.7,329.2,142.7,328z"/>
			<path class="st2" d="M165.8,332.5v0.6h-4.3l-2.6-4.4h-2v4.4c-1.3,0-2.6,0-3.8,0c0-5,0-10,0-15c2.2,0,4.4,0,6.6,0
				c5.9,0,7,7.1,3.2,9.7L165.8,332.5z M159.7,321.5c-0.9,0-1.8,0-2.7,0c0,1.2,0,2.5,0,3.7h2.7C161.7,325.2,161.9,321.5,159.7,321.5z
				"/>
			<path class="st2" d="M180.5,321.5c-2.2,0-3.3,0-5.5,0v2.1h5.1c0,1.1,0,2.3,0,3.4H175c0,0.9,0,1.7,0,2.6c2.2,0,3.5,0,5.7,0
				c0,1.1,0,2.3,0,3.4c-3.5,0-6.1,0-9.5,0c0-5,0-10,0-15c3.5,0,5.8,0,9.4,0C180.5,319.2,180.5,320.4,180.5,321.5z"/>
			<path class="st2" d="M194.4,328.6c0-1-1.2-1.2-2.7-1.3c-3.3-0.2-5.4-1.3-5.4-4.6c-0.1-6.5,11.5-6.5,11.4,0c-1.3,0-2.3,0-3.6,0
				c0-2-4-1.8-4.2,0c-0.1,1.1,1,1.4,2.4,1.5c3,0.3,5.9,0.7,5.9,4.5c0,6.3-12.2,6.5-12.1-0.1c1.3,0,2.4,0,3.7,0
				C189.7,330.4,194.4,330.4,194.4,328.6z"/>
		</g>
		<g>
			<path class="st2" d="M15.9,287.1c2,1,2.9,2.8,2.9,4.9c0,4.2-2.6,7.6-7.5,7.6H0v-24.1h10.3c4.2,0,7.5,3.2,7.5,7.4
				C17.8,284.4,17.1,286.2,15.9,287.1z M6,281.1v3.9h3.9c2.4,0,2.4-3.9,0-3.9H6z M6,290.1v4.1h4.9c2.5,0,2.4-4.1,0-4.1H6z"/>
			<path class="st2" d="M35.5,294.1h8.7c0,2.1,0,3.5,0,5.5c-5,0-10.1,0-14.9,0v-24.1c2.1,0,4.1,0,6.2,0
				C35.5,288,35.5,283.9,35.5,294.1z"/>
			<path class="st2" d="M67.3,291.5v-16c2,0,4,0,5.9,0v16.1c0,5.3-4.6,8.4-9.5,8.4c-4.9,0-9.6-3.1-9.6-8.4v-16.1c1.9,0,4,0,5.9,0v16
				c0,2,1.9,2.9,3.7,2.9S67.3,293.5,67.3,291.5z"/>
			<path class="st2" d="M99.9,281.1c-3.6,0-5.4,0-8.9,0v3.4h8.2c0,1.8,0,3.7,0,5.5H91c0,1.4,0,2.8,0,4.2c3.5,0,5.6,0,9.2,0
				c0,1.8,0,3.7,0,5.5c-5.7,0-9.8,0-15.4,0c0-8.1,0-16.1,0-24.1c5.6,0,9.4,0,15.1,0C99.9,277.4,99.9,279.2,99.9,281.1z"/>
			<path class="st2" d="M135.4,275.9l4.1,12.8h0.1l1.1-4.1l3.1-9.1h6.1v0.9l-8.4,23.4h-3.5l-3.9-11.6H134l-3.9,11.6h-3.4l-8.5-23.4
				v-0.9h6.2l3.1,9.1l1.1,4.1h0.1l4-12.8C133.7,275.9,134.4,275.9,135.4,275.9z"/>
			<path class="st2" d="M179.3,299.7c-2.1,0-4.2,0-6.3,0V290h-7.4v9.7c-2.1,0-4.2,0-6.3,0v-24.1c2.1,0,4.2,0,6.3,0v8.7h7.4v-8.7
				c2.1,0,4.2,0,6.3,0V299.7z"/>
			<path class="st2" d="M205.6,296.6h-9.5l-1.4,3h-6v-0.9l10.9-23.5h2.7l10.9,23.5v0.9h-6L205.6,296.6z M200.9,285l-2.7,6.3h5.5
				L200.9,285z"/>
			<path class="st2" d="M228.2,294.1h8.8c0,2.1,0,3.5,0,5.5c-5,0-10.1,0-15,0v-24.1c2.1,0,4.1,0,6.2,0
				C228.2,288,228.2,283.9,228.2,294.1z"/>
			<path class="st2" d="M261.9,281.1c-3.6,0-5.4,0-8.9,0v3.4h8.2c0,1.8,0,3.7,0,5.5H253c0,1.4,0,2.8,0,4.2c3.5,0,5.6,0,9.2,0
				c0,1.8,0,3.7,0,5.5c-5.7,0-9.8,0-15.4,0c0-8.1,0-16.1,0-24.1c5.6,0,9.4,0,15.1,0C261.9,277.4,261.9,279.2,261.9,281.1z"/>
		</g>
	</g>
</g>
</svg>
