<?xml version="1.0" encoding="utf-8"?>
<!-- Generator: Adobe Illustrator 21.1.0, SVG Export Plug-In . SVG Version: 6.00 Build 0)  -->
<svg version="1.1" id="Layer_1" xmlns="http://www.w3.org/2000/svg" xmlns:xlink="http://www.w3.org/1999/xlink" x="0px" y="0px"
	 viewBox="0 0 262.3 333.4" style="enable-background:new 0 0 262.3 333.4;" xml:space="preserve">
<style type="text/css">
	.st0{fill:url(#SVGID_1_);}
	.st1{fill:none;stroke:#F1F2F2;stroke-width:6;stroke-linecap:round;stroke-miterlimit:10;}
</style>
<g>
	<g>
		<linearGradient id="SVGID_1_" gradientUnits="userSpaceOnUse" x1="5.123" y1="164.1445" x2="257.1328" y2="164.1445">
			<stop  offset="0" style="stop-color:#008DFF"/>
			<stop  offset="1.546502e-02" style="stop-color:#008DFE"/>
			<stop  offset="1" style="stop-color:#00A1DB"/>
		</linearGradient>
		<path class="st0" d="M257.1,164.1c0,69.6-56.4,126-126,126c-69.6,0-126-56.4-126-126c0-69.6,56.4-126,126-126
			C200.7,38.1,257.1,94.6,257.1,164.1"/>
		<g>
			<path class="st1" d="M106,203c0,0-1-0.1-2.8-0.5c-10.6-2.4-50.7-14-46.4-54.3l-29.3,1.5l5.6-10.6l16.7-8.2l10.6,2.1l10.1-9.8
				l14.6-2.9l13.3,5l-26,20.3c0,0,1.9,18.1,17.9,22.1"/>
			<path class="st1" d="M194.1,162.7c0,0-30-0.2-65.5,39.8c-3.6,4.1-7.3,8.6-11,13.6c0,0-18.3,18.1-30.8,12c0,0,27.6-6.6,19.1-58.4
				l41.2-51.5h49.1l29.5,45.3L199.4,203h-70.8"/>
		</g>
	</g>
</g>
</svg>
