<svg xmlns="http://www.w3.org/2000/svg" xmlns:xlink="http://www.w3.org/1999/xlink" viewBox="0 0 252 252"><defs><style>.cls-1{fill:url(#linear-gradient);}.cls-2{fill:none;stroke:#f1f2f2;stroke-linecap:round;stroke-miterlimit:10;stroke-width:6px;}</style><linearGradient id="linear-gradient" y1="131.08" x2="252" y2="131.08" gradientTransform="matrix(1, 0, 0, -1, 0, 257.08)" gradientUnits="userSpaceOnUse"><stop offset="0" stop-color="#008dff"/><stop offset="0.02" stop-color="#008dfe"/><stop offset="1" stop-color="#00a1db"/></linearGradient></defs><title>Asset 1</title><g id="Layer_2" data-name="Layer 2"><g id="Layer_1-2" data-name="Layer 1"><path class="cls-1" d="M252,126A126,126,0,1,1,126,0,126,126,0,0,1,252,126"/><path class="cls-2" d="M100.9,164.9a26.66,26.66,0,0,1-2.8-.5c-10.6-2.4-50.7-14-46.4-54.3l-29.3,1.5L28,101l16.7-8.2,10.6,2.1,10.1-9.8L80,82.2l13.3,5-26,20.3s1.9,18.1,17.9,22.1"/><path class="cls-2" d="M189,124.6s-30-.2-65.5,39.8c-3.6,4.1-7.3,8.6-11,13.6,0,0-18.3,18.1-30.8,12,0,0,27.6-6.6,19.1-58.4L142,80.1h49.1l29.5,45.3-26.3,39.5H123.5"/></g></g></svg>